<svg xmlns="http://www.w3.org/2000/svg" xmlns:xlink="http://www.w3.org/1999/xlink" version="1.1" width="96" height="96" viewBox="4.8 -9.6 96.0 129.6">
<path d="M87.104 95.98v0c-0.532 0-1.040-0.216-1.416-0.584l-22.436-22.464-10.188 11.368c-0.46 0.508-1.14 0.752-1.82 0.64-0.672-0.112-1.248-0.564-1.508-1.188l-23.7-55.596c-0.32-0.752-0.152-1.624 0.424-2.2 0.58-0.58 1.456-0.748 2.2-0.424l55.42 23.684c0.632 0.272 1.084 0.844 1.196 1.528 0.1 0.672-0.14 1.36-0.656 1.816l-11.852 10.424 22.656 22.676c0.78 0.776 0.78 2.048 0 2.828l-6.916 6.908c-0.364 0.368-0.872 0.584-1.404 0.584zM63.172 68.020c0.532 0 1.040 0.212 1.416 0.584l22.52 22.548 4.080-4.084-22.752-22.764c-0.392-0.392-0.604-0.924-0.584-1.48 0.016-0.552 0.264-1.076 0.676-1.436l11.076-9.74-47.936-20.492 20.512 48.124 9.504-10.604c0.372-0.412 0.888-0.652 1.436-0.668 0.016 0.012 0.036 0.012 0.052 0.012z" fill="#008191"/>
<path d="M47.988 88.020h-4c-1.104 0-2-0.896-2-2s0.896-2 2-2h4c1.104 0 2 0.896 2 2s-0.896 2-2 2zM35.988 88.020h-4c-1.104 0-2-0.896-2-2s0.896-2 2-2h4c1.104 0 2 0.896 2 2s-0.896 2-2 2zM23.988 88.020h-4c-1.104 0-2-0.896-2-2s0.896-2 2-2h4c1.104 0 2 0.896 2 2s-0.896 2-2 2zM11.988 88.020h-4c-1.104 0-2-0.896-2-2s0.896-2 2-2h4c1.104 0 2 0.896 2 2s-0.896 2-2 2zM1.988 86.020c-1.104 0-2-0.896-2-2v-4c0-1.104 0.896-2 2-2s2 0.896 2 2v4c0 1.104-0.896 2-2 2zM1.988 74.020c-1.104 0-2-0.896-2-2v-4c0-1.104 0.896-2 2-2s2 0.896 2 2v4c0 1.104-0.896 2-2 2zM1.988 62.020c-1.104 0-2-0.896-2-2v-4c0-1.104 0.896-2 2-2s2 0.896 2 2v4c0 1.104-0.896 2-2 2zM1.988 50.020c-1.104 0-2-0.896-2-2v-4c0-1.104 0.896-2 2-2s2 0.896 2 2v4c0 1.104-0.896 2-2 2zM1.988 38.020c-1.104 0-2-0.896-2-2v-4c0-1.104 0.896-2 2-2s2 0.896 2 2v4c0 1.104-0.896 2-2 2zM73.988 34.020c-1.1 0-2-0.896-2-2v-4c0-1.104 0.9-2 2-2s2 0.896 2 2v4c0 1.104-0.9 2-2 2zM1.988 26.020c-1.104 0-2-0.896-2-2v-4c0-1.104 0.896-2 2-2s2 0.896 2 2v4c0 1.104-0.896 2-2 2zM73.988 22.020c-1.1 0-2-0.896-2-2v-4c0-1.104 0.9-2 2-2s2 0.896 2 2v4c0 1.104-0.9 2-2 2zM1.988 14.020c-1.104 0-2-0.896-2-2v-4c0-1.104 0.896-2 2-2s2 0.896 2 2v4c0 1.104-0.896 2-2 2zM73.988 10.020c-1.1 0-2-0.896-2-2v-4c0-1.104 0.9-2 2-2s2 0.896 2 2v4c0 1.104-0.9 2-2 2zM67.988 4.020h-4c-1.104 0-2-0.896-2-2s0.896-2 2-2h4c1.1 0 2 0.896 2 2s-0.9 2-2 2zM55.988 4.020h-4c-1.104 0-2-0.896-2-2s0.896-2 2-2h4c1.104 0 2 0.896 2 2s-0.896 2-2 2zM43.988 4.020h-4c-1.104 0-2-0.896-2-2s0.896-2 2-2h4c1.104 0 2 0.896 2 2s-0.896 2-2 2zM31.988 4.020h-4c-1.104 0-2-0.896-2-2s0.896-2 2-2h4c1.104 0 2 0.896 2 2s-0.896 2-2 2zM19.988 4.020h-4c-1.104 0-2-0.896-2-2s0.896-2 2-2h4c1.104 0 2 0.896 2 2s-0.896 2-2 2zM7.988 4.020h-4c-1.104 0-2-0.896-2-2s0.896-2 2-2h4c1.104 0 2 0.896 2 2s-0.896 2-2 2z" fill="#008191"/>
</svg>
